<?xml version="1.0" standalone="no"?>
<!DOCTYPE svg PUBLIC "-//W3C//DTD SVG 1.1//EN" "http://www.w3.org/Graphics/SVG/1.1/DTD/svg11.dtd" >
<!--
2013-9-30: Created.
-->
<svg>
<metadata>
Created by iconfont
</metadata>
<defs>

<font id="iconfont" horiz-adv-x="1024" >
  <font-face
    font-family="iconfont"
    font-weight="500"
    font-stretch="normal"
    units-per-em="1024"
    ascent="896"
    descent="-128"
  />
    <missing-glyph />
    
    <glyph glyph-name="x" unicode="x" horiz-adv-x="1001"
d="M281 543q-27 -1 -53 -1h-83q-18 0 -36.5 -6t-32.5 -18.5t-23 -32t-9 -45.5v-76h912v41q0 16 -0.5 30t-0.5 18q0 13 -5 29t-17 29.5t-31.5 22.5t-49.5 9h-133v-97h-438v97zM955 310v-52q0 -23 0.5 -52t0.5 -58t-10.5 -47.5t-26 -30t-33 -16t-31.5 -4.5q-14 -1 -29.5 -0.5
t-29.5 0.5h-32l-45 128h-439l-44 -128h-29h-34q-20 0 -45 1q-25 0 -41 9.5t-25.5 23t-13.5 29.5t-4 30v167h911zM163 247q-12 0 -21 -8.5t-9 -21.5t9 -21.5t21 -8.5q13 0 22 8.5t9 21.5t-9 21.5t-22 8.5zM316 123q-8 -26 -14 -48q-5 -19 -10.5 -37t-7.5 -25t-3 -15t1 -14.5
t9.5 -10.5t21.5 -4h37h67h81h80h64h36q23 0 34 12t2 38q-5 13 -9.5 30.5t-9.5 34.5q-5 19 -11 39h-368zM336 498v228q0 11 2.5 23t10 21.5t20.5 15.5t34 6h188q31 0 51.5 -14.5t20.5 -52.5v-227h-327z" />
    

    
    <glyph glyph-name="left" unicode="&#58890;" d="M671.968176-15.999569999999949c-12.287381 0-24.576482 4.67206-33.951566 14.047144L286.048434 350.015751c-18.751888 18.719204-18.751888 49.12028 0 67.872168L638.016611 769.888778c18.751888 18.751888 49.12028 18.751888 67.872168 0 18.751888-18.719204 18.751888-49.12028 0-67.872168l-318.016611-318.047574L705.888778 65.95242599999995c18.751888-18.751888 18.751888-49.12028 0-67.872168C696.544658-11.327509999999961 684.255557-15.999569999999949 671.968176-15.999569999999949z"  horiz-adv-x="1024" />

    
    <glyph glyph-name="arrow-right" unicode="&#58933;" d="M967.617363 364.61448700000005c0 244.531296-200.372563 442.761056-447.545012 442.761056-247.171426 0-447.543989-198.22976-447.543989-442.761056 0-1.440815 0.016373-2.87856 0.029676-4.315282-0.014326-1.436722-0.029676-2.876514-0.029676-4.317329 0-244.531296 200.372563-442.761056 447.543989-442.761056 247.172449 0 447.545012 198.22976 447.545012 442.761056 0 1.440815-0.016373 2.879584-0.029676 4.317329C967.600991 361.73592699999995 967.617363 363.172649 967.617363 364.61448700000005zM720.028429 319.633017c-1.496074-1.497097-3.062755-2.876514-4.679579-4.160763L475.2147 78.40290700000003c-21.351284-21.351284-55.967686-21.351284-77.31897 0s-21.350261 55.965639 0 77.317946l205.89637 202.828498L397.896754 564.876534c-21.350261 21.350261-21.350261 55.966663 0 77.317946 21.350261 21.350261 55.966663 21.350261 77.31897 0L715.351919 401.627473c1.6158-1.286296 3.181459-2.664689 4.676509-4.15974 10.740622-10.740622 16.07307-24.838711 16.006556-38.918381C736.101499 344.47377500000005 730.769051 330.375685 720.028429 319.633017z"  horiz-adv-x="1024" />

    
    <glyph glyph-name="live" unicode="&#58910;" d="M272.23785897 235.28672724l-55.66775712 0L216.57010185 365.17935996000006c0 10.25754521-8.34004512 18.52114306-18.55621846 18.52114307-10.2629417 0-18.55531934-8.26359697-18.55531933-18.52114307l-1e-8-148.4821292c0-10.2206707 8.29237763-18.55711845 18.55531934-18.55711845l74.22397648 0c10.21617334 0 18.55711846 8.33644776 18.55711845 18.55711845C290.79497744 226.98985313000003 282.45403232 235.28672725 272.23785897 235.28672724zM346.46273457 383.70050303000005c-10.2629417 0-18.55621846-8.26359697-18.55621845-18.52114307l0-148.4821292c0-10.2206707 8.29327675-18.55711845 18.55621845-18.55711845 10.21617334 0 18.55531934 8.33644776 18.55531934 18.55711845L365.01805391 365.17935996000006C365.01805391 375.43690605999996 356.67890791 383.70050303000005 346.46273457 383.70050303000005zM290.57372685 642.39750674c9.95714912 0 18.98073106 4.03736309 25.64251436 10.59391758 43.35420586 18.04356651 91.26292412 28.07716377 141.6476628 28.07716377 50.66534882 0 98.82499658-10.13612783 142.36897411-28.35867305 6.43963359-5.37025869 14.73920683-8.60896318 23.80775801-8.60896319 20.50699658 0 37.11243779 16.56406933 37.1124378 36.93255997 0 13.46297168-7.21760625 25.2216-18.01118848 31.6747248l0.11332353 0.21135674c-56.05449521 27.09412998-118.93176386 42.28303184-185.35532871 42.28303184-62.08400742 0-121.06691631-13.28219472-174.28563457-37.14211758-17.1576668-3.35022891-30.15205664-18.83772773-30.15205664-37.46230049C253.46128906 659.5048078 270.0937127 642.39750674 290.57372685 642.39750674zM915.57077891 487.24370039l-105.19807589-60.70254346-0.01708857 68.53083575c0 36.64295596-31.82042549 74.76900645-71.25329004 74.76900644L139.58499747 569.841c-39.43196543 0-71.46374766-38.12694961-71.46374767-74.76900645l0.06475606-415.95268446c0-36.60428232 31.96702617-66.32193339 71.3989916-66.32193342l599.51822695 1e-8c39.43286456 0 71.36301622 29.71765107 71.36301621 66.3219334l-0.01259121 40.111904 103.80851807-58.37582109c22.91106622-17.61545654 44.4757456-14.78777432 44.57827617 14.02419199l0 389.93062676C958.91239355 493.65905156 938.58167744 504.67658087 915.57077891 487.24370039zM736.24136416 383.76435997l-0.11152442-0.06385695L736.12983974 161.02857451l0.11152442-0.06025957 0-31.50833731c0-23.51905402-19.24695088-42.58522705-43.02053174-42.58522704L185.46828857 86.87475058999996c-23.77537998 0-43.05830625 19.06527393-43.05830625 42.58522705L142.40998232 451.9822084c0 23.51815489 19.28292627 42.54745254 43.05830625 42.54745254l507.75254385 0c23.77358174 0 43.02053174-19.02929854 43.02053174-42.54745254L736.24136416 383.76435997zM884.57959092 171.5361501c-0.02698154-11.99426748-8.66112803-13.19135625-17.8286124-5.83524405l-56.39446495 32.43920626L810.35651445 346.62314151l56.93769668 33.81437372c9.20435977 7.28596055 17.32315518 2.68288066 17.28627979-9.27810966L884.58049003 171.5361501zM680.46118349 346.62314152c10.26474082 0 18.55711846 8.30047237 18.55711846 18.55621845 0 10.25754521-8.29237763 18.52114307-18.55711846 18.52114306l-74.22397646 0c-10.25214874 0-18.55531934-8.26359697-18.55531933-18.52114306l0-148.48212921c0-10.2206707 8.30227148-18.55711845 18.55531933-18.55711845l74.22397646 0c10.26474082 0 18.55711846 8.33644776 18.55711846 18.55711845 0 10.29172237-8.29237763 18.58949648-18.55711845 18.58949648l-55.66775713 0 0 37.07826066 55.66775712-1e-8c10.26474082 0 18.55711846 8.33464951 18.55711846 18.55711846 0 10.29262149-8.29237763 18.55442022-18.55711846 18.55442021l-55.66775712 1e-8 0 37.14751405L680.46118349 346.62404062999997zM543.06763614 381.38187539c-7.0611126 5.18228614-24.20798731-3.69919161-28.26693546-12.68679815l-38.15483115-106.78549922-37.58731611 108.05543878c-4.09672266 8.87878037-22.36693536 15.40205771-29.42624883 10.29172236-7.06920732-5.14541162-9.46248487-16.48852119-5.40353672-25.33312442l59.00089746-146.48998007c0.45059414-0.98663115 0.97224082-1.88692031 1.53525938-2.72515254 1.17460371-2.05060958 2.68647891-3.8350002 4.52123437-5.17688965 7.05931347-5.18318614 16.09009102-2.13695156 20.14813917 6.88573125l59.03777196 148.30584874C552.53012099 364.71167724 550.09996807 376.19689013000004 543.06763614 381.38187539z"  horiz-adv-x="1036" />

    
    <glyph glyph-name="download" unicode="&#58917;" d="M837.43057648 36.221824760000004l-325.40781089 1e-8 0 0-0.04721786 0L186.56942352 36.221824760000004c-23.45300518 0-42.43716513 19.47826208-42.43716512 43.46921559L144.1322584 297.06915766c0 23.99010974 18.98415994 43.46668597 42.43716512 43.46668596 23.44794598 0 42.48185339-19.47657622 42.4818534-43.46668596l0-173.91396094 565.94297818 0 0 173.91396094c0 23.99010974 19.03559408 43.46668597 42.43800806 43.46668597 23.44963267 0 42.43632221-19.47657622 42.43632219-43.46668597l0-217.37727439C879.8677416 55.70093061 860.87936621 36.221824760000004 837.43057648 36.221824760000004L837.43057648 36.221824760000004zM670.87587554 427.36972064L543.56775351 282.44928881l-0.04721786 1e-8c-7.75386804-8.83060675-18.98668955-14.37366111-31.49776924-14.37366111-12.55829838 0-23.7919628 5.54305435-31.5930487 14.37366111l0 0L353.12243777 427.36972064l0 0c-6.76987839 7.7024339-10.8913343 17.90657831-10.89133429 29.09133819 0 23.99010974 18.98584662 43.46584305 42.43294886 43.46584305 12.55998423 0 23.74558787-5.54305435 31.54583085-14.3736611l0 0 53.32849941-60.73497811L469.53838259 688.31148926l0 0c0 23.98842306 19.03306448 43.46668597 42.4818534 43.46668597 23.45131851 0 42.43800804-19.47741916 42.43800806-43.46668597l0 0 0-263.49406952 53.3251269 60.73413436 0 0c7.75386804 8.83060675 19.03475034 14.37450403 31.59389163 14.37450403 23.40157105 0 42.38573098-19.4757333 42.38573098-43.46584305C681.76552398 445.2754552 677.64322516 435.07131079 670.87587554 427.36972064L670.87587554 427.36972064 670.87587554 427.36972064z"  horiz-adv-x="1024" />

    
    <glyph glyph-name="capture" unicode="&#58889;" d="M874.82 641.8199999999999h-157.5l-88.14 93.75h-0.93q-9.39 9.39-24.39 9.39h-183.75q-15 0-25.32-9.39L306.65 641.8199999999999h-157.5q-24.39 0-41.73-17.34t-17.34-41.73V84q0-24.39 17.34-41.73t41.73-17.34L874.79 24q24.39 0 41.73 17.82T933.86 84V582.75q0 24.39-17.34 41.73t-41.73 17.34zM433.25 676.5h157.5l32.82-34.68h-223.14z m77.82-498.75q-67.5 0-115.32 47.82t-47.82 115.32 47.82 115.32 115.32 47.82 115.32-47.82 47.82-115.32-47.82-115.32-115.32-47.82z m0 258.75q-39.39 0-67.5-28.14t-28.14-67.98 28.14-67.98 67.98-28.14 67.98 28.14 28.14 67.98-28.14 67.98-68.43 28.14z"  horiz-adv-x="1024" />

    
    <glyph glyph-name="rotate-left" unicode="&#59520;" d="M248.32812525 692.25651067h98.87695313a65.9179685 65.9179685 0 0 0 65.91796849-65.91796925v-527.3437495a65.9179685 65.9179685 0 0 0-65.91796849-65.91796925H248.32812525a65.9179685 65.9179685 0 0 0-65.91796925 65.91796925V626.33854142a65.9179685 65.9179685 0 0 0 65.91796925 65.91796925m527.3437495-428.46679712a65.9179685 65.9179685 0 0 0 65.91796925-65.9179685v-98.87695313a65.9179685 65.9179685 0 0 0-65.91796925-65.91796925h-296.63085938v230.71289088h296.63085938M577.9179685 626.33854142a263.67187475 263.67187475 0 0 0 263.6718755-263.67187475l-1.97753906-32.95898463h-66.57714869l2.6367185 32.95898463a197.75390625 197.75390625 0 0 1-197.75390625 197.75390625v-98.87695313l-131.835937 131.83593776 131.835937 131.83593699v-98.87695312z"  horiz-adv-x="1024" />

    
    <glyph glyph-name="right" unicode="&#59024;" d="M300.992 0q15.008 0 27.008 10.016L752 351.008q16 12.992 16 34.016t-16 34.016L329.984 758.048q-14.016 11.008-32 8.992t-29.504-16-9.504-32 16-28.992l380-304.992L272.96 78.048q-14.016-11.008-16-28.992t8.992-32q14.016-16.992 35.008-16.992z"  horiz-adv-x="1024" />

    
    <glyph glyph-name="fullscreen" unicode="&#58904;" d="M410.88 101.97333300000003c8.106667-8.106667 5.546667-17.066667-5.973333-18.773333l-215.893334-35.84c-7.68-2.133333-15.786667 2.56-17.92 10.24-0.853333 2.56-0.853333 5.12 0 7.253333l35.84 215.893334c1.706667 11.52 10.24 14.506667 18.773334 5.973333l61.866666-61.866667 120.32 120.32 61.013334-61.013333-120.32-120.32 62.293333-61.866667z m424.533333 627.2l-215.893333-35.84c-11.52-1.706667-14.506667-10.24-5.973333-18.773333l61.866666-61.866667-120.32-120.32 61.013334-61.013333 120.32 120.32 61.866666-61.866667c8.106667-8.106667 17.066667-5.546667 18.773334 5.973334l35.84 215.893333c2.133333 7.68-2.56 15.36-10.24 17.92-2.133333 0-4.693333 0-7.253334-0.426667z"  horiz-adv-x="1024" />

    
    <glyph glyph-name="fullscreen-off" unicode="&#58905;" d="M465.92 320.426667l-35.84-213.76c-1.706667-11.52-10.24-14.08-18.773333-5.973334L349.866667 162.133333l-119.04-119.04-60.586667 60.586667 119.04 119.04-61.44 61.44c-8.106667 8.106667-5.546667 16.64 5.973333 18.773333l213.76 35.84c7.68 2.133333 15.36-2.56 17.493334-10.24 1.706667-2.986667 1.706667-5.546667 0.853333-8.106666z m268.373333 225.28L853.333333 664.746667 792.746667 725.333333l-119.04-119.04-61.44 61.44c-8.106667 8.106667-16.64 5.546667-18.773334-5.973333l-35.84-213.76c-2.133333-7.68 2.56-15.36 10.24-17.493333 2.133333-0.853333 5.12-0.853333 7.253334 0l213.76 35.84c11.52 1.706667 14.08 10.24 5.973333 18.773333l-60.586667 60.586667z"  horiz-adv-x="1024" />

    
    <glyph glyph-name="replay" unicode="&#58906;" d="M512 717.226667v85.333333c0 21.333333-17.066667 34.133333-34.133333 17.066667l-187.733334-119.466667a25.024 25.024 0 0 1-14.08-32.426667 25.3568 25.3568 0 0 1 14.08-14.08l183.466667-123.733333c21.333333-17.066667 38.4-4.266667 38.4 17.066667v85.333333a256 256 0 1 0-256-256H170.666667a341.333333 341.333333 0 1 1 341.333333 340.906667z"  horiz-adv-x="1024" />

    
    <glyph glyph-name="play" unicode="&#58907;" d="M267.946667 44.8c-4.266667-3.413333-10.24-2.56-14.08 1.706667-1.706667 2.133333-2.56 4.693333-2.133334 7.68V714.24c-0.853333 5.546667 2.986667 10.24 8.106667 11.093333 2.986667 0.426667 5.546667-0.426667 8.106667-1.706666l660.053333-331.52c8.96-4.693333 8.96-11.946667 0-16.213334L267.946667 44.8z"  horiz-adv-x="1024" />

    
    <glyph glyph-name="pause" unicode="&#58908;" d="M426.666667 64.426667c0.853333-11.093333-7.68-20.48-18.773334-21.333334H277.333333c-11.093333-0.853333-20.48 7.68-21.333333 18.773334V704c-0.853333 11.093333 7.68 20.48 18.773333 21.333333H405.333333c11.093333 0.853333 20.48-7.68 21.333334-18.773333v-642.133333z m341.333333 639.146666c0.853333 11.093333-7.68 20.48-18.773333 21.333334H618.666667c-11.093333 0.853333-20.48-7.68-21.333334-18.773334V64c-0.853333-11.093333 7.68-20.48 18.773334-21.333333H746.666667c11.093333-0.853333 20.48 7.68 21.333333 18.773333V703.573333z"  horiz-adv-x="1024" />

    
    <glyph glyph-name="loading" unicode="&#58909;" d="M512 99.554133a284.445867 284.445867 0 0 0 0 568.887467V725.333333a341.333333 341.333333 0 1 1 341.333333-341.333333h-56.887466A285.2096 285.2096 0 0 0 512 99.554133z"  horiz-adv-x="1024" />

    
    <glyph glyph-name="volume-part" unicode="&#58911;" d="M496.64 713.386667v-659.2c0-11.946667-7.253333-15.36-16.213333-7.253334l-230.826667 205.226667H123.306667c-11.946667 0-22.186667 9.813333-22.186667 22.186667V494.08c0 11.946667 9.813333 22.186667 22.186667 22.186667h126.293333l230.826667 205.226666c8.96 7.68 16.213333 4.266667 16.213333-8.106666z m263.68-329.386667c0 96.853333-78.933333 175.786667-175.786667 175.786667v-87.893334c48.64 0 87.893333-39.253333 87.893334-87.893333 0-48.64-39.253333-87.893333-87.893334-87.893333v-87.893334c97.28 0 175.786667 78.933333 175.786667 175.786667z"  horiz-adv-x="1024" />

    
    <glyph glyph-name="volume-x" unicode="&#58912;" d="M496.64 713.386667v-659.2c0-11.946667-7.253333-15.36-16.213333-7.253334l-230.826667 205.226667H123.306667c-11.946667 0-22.186667 9.813333-22.186667 22.186667V494.08c0 11.946667 9.813333 22.186667 22.186667 22.186667h126.293333l230.826667 205.226666c8.533333 7.68 16.213333 4.266667 16.213333-8.106666z m409.173333-228.693334l-62.293333 62.293334-100.693333-100.693334-100.693334 100.693334-62.293333-62.293334 100.693333-100.693333-100.693333-100.693333 62.293333-62.293334 100.693334 100.693334 100.693333-100.693334 62.293333 62.293334-100.693333 100.693333 100.693333 100.693333z"  horiz-adv-x="1024" />

    
    <glyph glyph-name="volume-full" unicode="&#58913;" d="M497.066667 713.386667v-658.773334c0-11.946667-7.253333-15.36-16.213334-7.253333l-230.826666 204.8H123.733333c-11.946667 0-22.186667 9.813333-22.186666 22.186667V493.653333c0 11.946667 9.813333 22.186667 22.186666 22.186667h126.293334l230.826666 204.8c8.96 8.106667 16.213333 5.12 16.213334-7.253333zM581.12 213.33333300000004v85.333334c47.36 0 85.333333 37.973333 85.333333 85.333333s-37.973333 85.333333-85.333333 85.333333V554.666667c94.293333 0 170.666667-76.373333 170.666667-170.666667s-76.373333-170.666667-170.666667-170.666667zM922.453333 384c0 188.586667-152.746667 341.333333-341.333333 341.333333v-85.333333c141.226667 0 256-114.773333 256-256s-114.773333-256-256-256v-85.333333c188.586667 0.426667 340.906667 153.173333 341.333333 341.333333z"  horiz-adv-x="1024" />

    
    <glyph glyph-name="setting" unicode="&#58918;" d="M777.45136692 349.14274928c1.34066295 11.17219539 2.23443877 22.79127951 2.23443878 34.85725072s-0.89377582 23.23816663-2.23443878 34.85725072l75.07715481 58.98919161c6.70331787 5.36265335 8.49086796 14.74729868 4.02199041 22.79127949l-71.50205152 123.34103972c-4.0219904 7.5970937-13.85352287 10.72530828-21.45061658 7.59709212l-88.93067608-35.75102498c-18.32240039 14.30040998-38.43235244 25.91949408-60.32985611 34.85724914l-13.40663575 94.74021974a17.07111519 17.07111519 0 0 1-17.42862457 14.74729713h-143.00410306c-8.93775665 0-16.08796163-6.25642917-17.42862457-14.74729713l-13.40663575-94.74021974c-21.45061498-8.93775665-41.56056702-21.00372786-60.32985611-34.85724914l-88.93067608 35.75102498c-8.04398081 3.12821459-17.42862458 0-21.45061658-7.59709212l-71.50205152-123.34103972c-4.46887751-7.5970937-2.23443877-17.42862458 4.02199041-22.79127949l75.07715481-58.98919161c-1.34066295-11.17219539-2.23443877-23.23816663-2.23443878-34.85725072s0.89377582-23.23816663 2.23443878-34.85725072l-75.07715481-58.98919161c-6.70331787-5.36265335-8.49086796-14.74729868-4.02199041-22.79127949l71.50205152-123.34103972c4.0219904-7.5970937 13.85352287-10.72530828 21.45061658-7.59709212l88.93067608 35.75102498c18.32240039-14.30040998 38.43235244-25.91949408 60.32985611-34.85724914l13.40663575-94.74021974c0.89377582-8.49086796 8.49086796-14.74729868 17.42862457-14.74729713h143.00410306c8.93775665 0 16.08796163 6.25642917 17.42862457 14.74729713l13.40663575 94.74021974c21.45061498 8.93775665 41.56056702 21.00372786 60.32985611 34.85724914l88.93067608-35.75102498c8.04398081-3.12821459 17.42862458 0 21.45061658 7.59709212l71.50205152 123.34103972c4.0219904 7.5970937 2.23443877 17.42862458-4.02199041 22.79127949l-75.07715481 58.98919161zM512 259.31829734999997c-68.82072406 0-125.12858979 55.86097858-125.12858979 125.12858976 0 68.82072406 55.86097858 125.12858979 125.12858979 125.12859135 68.82072406 0 125.12858979-55.86097858 125.12858979-125.12859135 0-68.82072406-55.86097858-125.12858979-125.12858979-125.12858976z"  horiz-adv-x="1024" />

    
    <glyph glyph-name="next" unicode="&#58926;" d="M704 640v-227.413333L252.586667 713.386667c-9.813333 6.4-17.92 2.133333-17.92-9.386667v-640c0-11.52 8.106667-16.213333 17.92-9.386667L704 355.84v-227.413333h85.333333v512l-85.333333-0.426667z"  horiz-adv-x="1024" />

    
    <glyph glyph-name="prev" unicode="&#59620;" d="M320 128l0 227.413333L771.413333 54.61333300000001c9.813333-6.4 17.92-2.133333 17.92 9.386667l0 640c0 11.52-8.106667 16.213333-17.92 9.386667L320 412.16l0 227.413333-85.333333 0 0-512 85.333333 0.426667z"  horiz-adv-x="1024" />

    
    <glyph glyph-name="arrow-left" unicode="&#59621;" d="M56.38263701 403.385513c0-244.53129599 200.372563-442.761056 447.54501199-442.761056 247.171426 0 447.543989 198.22976 447.543989 442.761056 0 1.440815-0.016373 2.87856001-0.029676 4.315282 0.014326 1.436722 0.02967601 2.876514 0.029676 4.317329 0 244.53129599-200.372563 442.761056-447.543989 442.761056-247.172449 0-447.545012-198.22976-447.545012-442.761056 0-1.440815 0.016373-2.879584 0.029676-4.317329C56.39900899 406.264073 56.382637 404.827351 56.38263701 403.385513zM303.971571 448.366983c1.496074 1.497097 3.062755 2.87651401 4.679579 4.160763L548.7853 689.597093c21.351284 21.351284 55.967686 21.351284 77.31897 0s21.350261-55.965639 0-77.317946l-205.89637-202.828498L626.103246 203.123466c21.350261-21.350261 21.350261-55.966663 0-77.317946-21.350261-21.350261-55.966663-21.350261-77.31897 0L308.648081 366.372527c-1.6158 1.286296-3.181459 2.664689-4.676509 4.15974-10.740622 10.740622-16.07307 24.838711-16.006556 38.91838101C287.898501 423.526225 293.230949 437.624315 303.971571 448.366983z"  horiz-adv-x="1024" />

    


  </font>
</defs>
</svg>
